<svg width="18" height="18" viewBox="0 0 18 18" fill="none" xmlns="http://www.w3.org/2000/svg">
<path d="M4.73438 11.4527L7.2365 8.20064L10.0906 10.4428L12.5392 7.28271" stroke="white" stroke-width="1.2" stroke-linecap="round" stroke-linejoin="round"/>
<path d="M15.3933 4.21356C16.2807 4.21356 17.0001 3.49418 17.0001 2.60678C17.0001 1.71938 16.2807 1 15.3933 1C14.5059 1 13.7865 1.71938 13.7865 2.60678C13.7865 3.49418 14.5059 4.21356 15.3933 4.21356Z" stroke="white" stroke-width="1.2" stroke-linecap="round" stroke-linejoin="round"/>
<path d="M11.1544 1.7041H5.07858C2.56103 1.7041 1 3.48705 1 6.00459V12.7614C1 15.279 2.53042 17.0542 5.07858 17.0542H12.2716C14.7891 17.0542 16.3501 15.279 16.3501 12.7614V6.87693" stroke="white" stroke-width="1.2" stroke-linecap="round" stroke-linejoin="round"/>
</svg>
