<svg width="23" height="23" viewBox="0 0 23 23" fill="none" xmlns="http://www.w3.org/2000/svg">
<path fill-rule="evenodd" clip-rule="evenodd" d="M17.7461 2.875H12.0728C10.485 2.875 9.19778 4.16218 9.19778 5.75V16.56C9.19778 18.1478 10.485 19.435 12.0728 19.435H17.7461C19.3339 19.435 20.6211 18.1478 20.6211 16.56V5.75C20.6211 4.16218 19.3339 2.875 17.7461 2.875ZM10.6736 10.5417H11.4594C11.7241 10.5417 11.9386 10.7562 11.9386 11.0208V11.3275C11.9386 11.5921 11.7241 11.8067 11.4594 11.8067H10.6736V10.5417ZM17.7461 18.0167C18.54 18.0167 19.1836 17.3731 19.1836 16.5792V5.75C19.1836 4.95609 18.54 4.3125 17.7461 4.3125H12.0728C11.2789 4.3125 10.6353 4.95609 10.6353 5.75V9.085H11.4211C12.4797 9.085 13.3378 9.94312 13.3378 11.0017V11.3083C13.3378 12.3669 12.4797 13.225 11.4211 13.225H10.6353V16.5792C10.6353 17.3731 11.2789 18.0167 12.0728 18.0167H17.7461Z" fill="white"/>
<path fill-rule="evenodd" clip-rule="evenodd" d="M1.92402 6.1525C1.80856 4.48737 3.05812 3.04097 4.72236 2.91333C6.37909 3.05576 7.61345 4.50369 7.49194 6.16208V15.0458C7.50282 15.5068 7.37603 15.9606 7.12777 16.3492L5.33569 19.1188C5.20875 19.3463 4.96857 19.4874 4.70798 19.4874C4.44739 19.4874 4.20721 19.3463 4.08027 19.1188L2.28819 16.3492C2.04556 15.9581 1.91926 15.506 1.92402 15.0458V6.1525ZM5.9107 15.5633C6.00696 15.4081 6.05684 15.2285 6.05445 15.0458L6.07361 6.1525C6.0832 5.175 5.46028 4.35083 4.72236 4.35083C3.99403 4.35083 3.37111 5.19417 3.37111 6.1525V15.0458C3.36294 15.2266 3.40613 15.4061 3.49569 15.5633L4.7032 17.48L5.9107 15.5633Z" fill="white"/>
<path d="M4.71278 4.96417C4.31582 4.96417 3.99403 5.28596 3.99403 5.68292V8.99875C3.99403 9.39571 4.31582 9.7175 4.71278 9.7175C5.10973 9.7175 5.43153 9.39571 5.43153 8.99875V5.68292C5.43413 5.49151 5.35925 5.30717 5.22388 5.17181C5.08852 5.03645 4.90419 4.96156 4.71278 4.96417Z" fill="white"/>
<path d="M17.5353 5.88417H14.3248C13.9279 5.88417 13.6061 6.20596 13.6061 6.60292C13.6061 6.99987 13.9279 7.32167 14.3248 7.32167H17.5353C17.9322 7.32167 18.254 6.99987 18.254 6.60292C18.254 6.20596 17.9322 5.88417 17.5353 5.88417Z" fill="white"/>
<path fill-rule="evenodd" clip-rule="evenodd" d="M17.7461 2.875H12.0728C10.485 2.875 9.19778 4.16218 9.19778 5.75V16.56C9.19778 18.1478 10.485 19.435 12.0728 19.435H17.7461C19.3339 19.435 20.6211 18.1478 20.6211 16.56V5.75C20.6211 4.16218 19.3339 2.875 17.7461 2.875ZM10.6736 10.5417H11.4594C11.7241 10.5417 11.9386 10.7562 11.9386 11.0208V11.3275C11.9386 11.5921 11.7241 11.8067 11.4594 11.8067H10.6736V10.5417ZM17.7461 18.0167C18.54 18.0167 19.1836 17.3731 19.1836 16.5792V5.75C19.1836 4.95609 18.54 4.3125 17.7461 4.3125H12.0728C11.2789 4.3125 10.6353 4.95609 10.6353 5.75V9.085H11.4211C12.4797 9.085 13.3378 9.94312 13.3378 11.0017V11.3083C13.3378 12.3669 12.4797 13.225 11.4211 13.225H10.6353V16.5792C10.6353 17.3731 11.2789 18.0167 12.0728 18.0167H17.7461Z" stroke="white" stroke-width="0.3"/>
<path fill-rule="evenodd" clip-rule="evenodd" d="M1.92402 6.1525C1.80856 4.48737 3.05812 3.04097 4.72236 2.91333C6.37909 3.05576 7.61345 4.50369 7.49194 6.16208V15.0458C7.50282 15.5068 7.37603 15.9606 7.12777 16.3492L5.33569 19.1188C5.20875 19.3463 4.96857 19.4874 4.70798 19.4874C4.44739 19.4874 4.20721 19.3463 4.08027 19.1188L2.28819 16.3492C2.04556 15.9581 1.91926 15.506 1.92402 15.0458V6.1525ZM5.9107 15.5633C6.00696 15.4081 6.05684 15.2285 6.05445 15.0458L6.07361 6.1525C6.0832 5.175 5.46028 4.35083 4.72236 4.35083C3.99403 4.35083 3.37111 5.19417 3.37111 6.1525V15.0458C3.36294 15.2266 3.40613 15.4061 3.49569 15.5633L4.7032 17.48L5.9107 15.5633Z" stroke="white" stroke-width="0.3"/>
<path d="M4.71278 4.96417C4.31582 4.96417 3.99403 5.28596 3.99403 5.68292V8.99875C3.99403 9.39571 4.31582 9.7175 4.71278 9.7175C5.10973 9.7175 5.43153 9.39571 5.43153 8.99875V5.68292C5.43413 5.49151 5.35925 5.30717 5.22388 5.17181C5.08852 5.03645 4.90419 4.96156 4.71278 4.96417Z" stroke="white" stroke-width="0.3"/>
<path d="M17.5353 5.88417H14.3248C13.9279 5.88417 13.6061 6.20596 13.6061 6.60292C13.6061 6.99987 13.9279 7.32167 14.3248 7.32167H17.5353C17.9322 7.32167 18.254 6.99987 18.254 6.60292C18.254 6.20596 17.9322 5.88417 17.5353 5.88417Z" stroke="white" stroke-width="0.3"/>
</svg>
