<svg width="24" height="19" viewBox="0 0 24 19" fill="none" xmlns="http://www.w3.org/2000/svg">
<path fill-rule="evenodd" clip-rule="evenodd" d="M18.6001 4.71876C18.6001 6.18576 17.3688 7.37501 15.8501 7.37501C14.3313 7.37501 13.1001 6.18576 13.1001 4.71876V3.23125C13.1001 1.99897 14.1343 1 15.4101 1H16.2901C17.5658 1 18.6001 1.99897 18.6001 3.23125V4.71876ZM15.4101 2.59375C15.0456 2.59375 14.7501 2.87917 14.7501 3.23125V4.71876C14.7501 5.30556 15.2425 5.78126 15.8501 5.78126C16.4576 5.78126 16.9501 5.30556 16.9501 4.71876V3.23125C16.9501 2.87917 16.6546 2.59375 16.2901 2.59375H15.4101Z" fill="white"/>
<path fill-rule="evenodd" clip-rule="evenodd" d="M20.8 9.99937L20.888 10.5625C22.0685 10.6081 23.0009 11.5463 23 12.6875V15.875C23 17.0486 22.015 18 20.8 18H3.20004C1.98502 18 1.00005 17.0486 1.00005 15.875V12.6875C0.99527 11.9769 1.35853 11.311 1.96804 10.9131C1.86323 10.6987 1.79631 10.4689 1.77004 10.2331L1.56105 8.19311C1.50199 7.59545 1.70743 7.00155 2.12658 6.55822C2.54574 6.1149 3.13948 5.86352 3.76104 5.86624C4.03228 5.86824 4.30079 5.91867 4.55304 6.01499L5.98304 6.54624C6.61508 6.78005 7.14896 7.20978 7.50103 7.76811L8.23803 8.91561C8.55076 9.40848 8.64212 10.0031 8.49103 10.5625H10.493L10.614 9.99937C10.8792 8.65104 12.0864 7.66677 13.507 7.64061H17.907C19.3276 7.66677 20.5348 8.65104 20.8 9.99937ZM13.562 9.24499C12.9324 9.26898 12.4033 9.70955 12.286 10.3075L12.231 10.5944H19.227V10.3075C19.1262 9.70477 18.594 9.2577 17.962 9.24499H13.562ZM3.36504 7.64061C3.46463 7.52899 3.60853 7.46335 3.76104 7.45999C3.82614 7.44507 3.89394 7.44507 3.95904 7.45999L5.38904 7.99124C5.68482 8.09819 5.93603 8.29604 6.10404 8.55436L6.83003 9.71249C6.93643 9.87082 6.93643 10.0748 6.83003 10.2331C6.7415 10.3999 6.56202 10.5031 6.36803 10.4987H3.98104C3.70549 10.4953 3.47509 10.2955 3.44204 10.0312L3.20004 8.03374C3.19477 7.88601 3.25476 7.74309 3.36504 7.64061ZM20.8 16.4062C21.1038 16.4062 21.35 16.1684 21.35 15.875V12.6875C21.35 12.3941 21.1038 12.1562 20.8 12.1562H3.20004C2.89629 12.1562 2.65004 12.3941 2.65004 12.6875V15.875C2.65004 16.1684 2.89629 16.4062 3.20004 16.4062H20.8Z" fill="white"/>
<path fill-rule="evenodd" clip-rule="evenodd" d="M18.6001 4.71876C18.6001 6.18576 17.3688 7.37501 15.8501 7.37501C14.3313 7.37501 13.1001 6.18576 13.1001 4.71876V3.23125C13.1001 1.99897 14.1343 1 15.4101 1H16.2901C17.5658 1 18.6001 1.99897 18.6001 3.23125V4.71876ZM15.4101 2.59375C15.0456 2.59375 14.7501 2.87917 14.7501 3.23125V4.71876C14.7501 5.30556 15.2425 5.78126 15.8501 5.78126C16.4576 5.78126 16.9501 5.30556 16.9501 4.71876V3.23125C16.9501 2.87917 16.6546 2.59375 16.2901 2.59375H15.4101Z" stroke="white" stroke-width="0.5"/>
<path fill-rule="evenodd" clip-rule="evenodd" d="M20.8 9.99937L20.888 10.5625C22.0685 10.6081 23.0009 11.5463 23 12.6875V15.875C23 17.0486 22.015 18 20.8 18H3.20004C1.98502 18 1.00005 17.0486 1.00005 15.875V12.6875C0.99527 11.9769 1.35853 11.311 1.96804 10.9131C1.86323 10.6987 1.79631 10.4689 1.77004 10.2331L1.56105 8.19311C1.50199 7.59545 1.70743 7.00155 2.12658 6.55822C2.54574 6.1149 3.13948 5.86352 3.76104 5.86624C4.03228 5.86824 4.30079 5.91867 4.55304 6.01499L5.98304 6.54624C6.61508 6.78005 7.14896 7.20978 7.50103 7.76811L8.23803 8.91561C8.55076 9.40848 8.64212 10.0031 8.49103 10.5625H10.493L10.614 9.99937C10.8792 8.65104 12.0864 7.66677 13.507 7.64061H17.907C19.3276 7.66677 20.5348 8.65104 20.8 9.99937ZM13.562 9.24499C12.9324 9.26898 12.4033 9.70955 12.286 10.3075L12.231 10.5944H19.227V10.3075C19.1262 9.70477 18.594 9.2577 17.962 9.24499H13.562ZM3.36504 7.64061C3.46463 7.52899 3.60853 7.46335 3.76104 7.45999C3.82614 7.44507 3.89394 7.44507 3.95904 7.45999L5.38904 7.99124C5.68482 8.09819 5.93603 8.29604 6.10404 8.55436L6.83003 9.71249C6.93643 9.87082 6.93643 10.0748 6.83003 10.2331C6.7415 10.3999 6.56202 10.5031 6.36803 10.4987H3.98104C3.70549 10.4953 3.47509 10.2955 3.44204 10.0312L3.20004 8.03374C3.19477 7.88601 3.25476 7.74309 3.36504 7.64061ZM20.8 16.4062C21.1038 16.4062 21.35 16.1684 21.35 15.875V12.6875C21.35 12.3941 21.1038 12.1562 20.8 12.1562H3.20004C2.89629 12.1562 2.65004 12.3941 2.65004 12.6875V15.875C2.65004 16.1684 2.89629 16.4062 3.20004 16.4062H20.8Z" stroke="white" stroke-width="0.5"/>
</svg>
