<svg width="16" height="16" viewBox="0 0 16 16" fill="none" xmlns="http://www.w3.org/2000/svg">
<path fill-rule="evenodd" clip-rule="evenodd" d="M14.6321 4.00041L10.1841 0.712389C8.88296 -0.237463 7.11713 -0.237463 5.81603 0.712389L1.37601 4.00041C0.516356 4.61972 0.00488271 5.61293 0 6.67242V12.6165C0.0480199 14.5311 1.63733 16.0452 3.55202 16.0005H12.4481C14.3628 16.0452 15.9521 14.5311 16.0001 12.6165V6.66442C15.9932 5.60951 15.4854 4.62064 14.6321 4.00041ZM14.8001 12.6168C14.7523 13.8688 13.7001 14.8459 12.4481 14.8008H3.55201C2.30158 14.8414 1.25201 13.8668 1.19999 12.6168V6.6728C1.20426 5.99273 1.53453 5.35599 2.088 4.96079L6.52802 1.68077C7.4049 1.04043 8.59516 1.04043 9.47204 1.68077L13.9121 4.96879C14.4651 5.35713 14.7959 5.98907 14.8001 6.6648V12.6168ZM4.39998 11.0005H11.6C11.9314 11.0005 12.2 11.2691 12.2 11.6005C12.2 11.9318 11.9314 12.2005 11.6 12.2005H4.39998C4.06861 12.2005 3.79998 11.9318 3.79998 11.6005C3.79998 11.2691 4.06861 11.0005 4.39998 11.0005Z" fill="black"/>
</svg>
