<svg width="20" height="20" viewBox="0 0 20 20" fill="none" xmlns="http://www.w3.org/2000/svg">
<path fill-rule="evenodd" clip-rule="evenodd" d="M8.43699 3.79182C8.67701 3.01547 9.39945 2.48975 10.212 2.50015C11.0291 2.49194 11.753 3.02553 11.987 3.80848L12.537 5.47515C12.784 6.24651 13.5021 6.76907 14.312 6.76682H16.0453C16.8743 6.73541 17.6246 7.25485 17.8869 8.04185C18.1492 8.82886 17.8607 9.69456 17.1787 10.1668L15.7537 11.2085C15.0968 11.6803 14.8205 12.5227 15.0703 13.2918L15.6203 14.9585C15.8093 15.5354 15.7072 16.1682 15.3464 16.6565C14.9856 17.1448 14.4107 17.4281 13.8037 17.4168C13.41 17.4139 13.0276 17.2854 12.712 17.0502L11.3453 16.0085C10.6899 15.5304 9.80075 15.5304 9.14532 16.0085L7.71199 17.0502C7.39259 17.3072 6.99688 17.4508 6.58699 17.4585C5.97556 17.4636 5.40005 17.1702 5.04496 16.6724C4.68988 16.1746 4.59982 15.535 4.80366 14.9585L5.35366 13.2918C5.61864 12.525 5.35551 11.6749 4.70366 11.1918L3.27866 10.1502C2.61813 9.67626 2.34025 8.82939 2.5916 8.05629C2.84295 7.28319 3.56574 6.76165 4.37866 6.76682H6.11199C6.92643 6.76678 7.64595 6.23644 7.88699 5.45848L8.43699 3.79182ZM10.6537 4.22515C10.6024 4.0256 10.4178 3.88972 10.212 3.90015C9.99601 3.89276 9.8076 4.04562 9.77032 4.25848L9.22032 5.92515C8.78322 7.27208 7.52807 8.184 6.11199 8.18349H4.34532C4.14896 8.18914 3.97716 8.31716 3.91559 8.50372C3.85403 8.69027 3.91589 8.8954 4.07032 9.01682L5.49532 10.0585C6.64473 10.8898 7.12622 12.368 6.68699 13.7168L6.13699 15.3835C6.08297 15.5203 6.10515 15.6756 6.19532 15.7918C6.28884 15.9265 6.43988 16.0097 6.60366 16.0168C6.70367 16.0138 6.80008 15.9788 6.87866 15.9168L8.28699 14.8752C9.43484 14.0412 10.9891 14.0412 12.137 14.8752L13.5287 15.8668C13.6072 15.9288 13.7036 15.9638 13.8037 15.9668C13.96 15.9567 14.1036 15.8772 14.1953 15.7502C14.2855 15.6339 14.3077 15.4787 14.2537 15.3418L13.7037 13.6752C13.2644 12.3263 13.7459 10.8482 14.8953 10.0168L16.3203 8.98349C16.4748 8.86207 16.5366 8.65694 16.4751 8.47038C16.4135 8.28383 16.2417 8.15581 16.0453 8.15015H14.312C12.8959 8.15067 11.6408 7.23875 11.2037 5.89182L10.6537 4.22515Z" fill="white"/>
</svg>
